# Blender v2.77 (sub 0) OBJ File: 'antenna_dish.blend'
# www.blender.org
mtllib antenna_dish.mtl
o Cube
v 0.550000 0.000000 0.450000
v 0.550000 0.000000 0.550000
v 0.450000 0.000000 0.550000
v 0.450000 0.000000 0.450000
v 0.550000 0.730000 0.450000
v 0.550000 0.850000 0.550000
v 0.450000 0.850000 0.550000
v 0.450000 0.730000 0.450000
v 0.518306 1.062212 0.029926
v 0.530000 0.718218 0.472367
v 0.518306 1.092203 0.050925
v 0.530000 0.767367 0.506782
v 0.481694 1.062212 0.029926
v 0.470000 0.718218 0.472367
v 0.481694 1.092203 0.050925
v 0.470000 0.767367 0.506782
v -0.000000 0.026254 -0.001253
v -0.000000 0.054933 -0.042210
v 1.000000 0.026254 -0.001253
v 1.000000 0.054933 -0.042211
v 1.500000 0.735661 0.495479
v 1.500000 0.764340 0.454521
v 1.000000 1.445067 0.992211
v 1.000000 1.473746 0.951253
v -0.000000 1.445067 0.992211
v -0.000000 1.473746 0.951253
v -0.500000 0.735661 0.495479
v -0.500000 0.764340 0.454521
vt 0.2615 0.0845
vt 0.7474 0.0857
vt 0.2615 0.0857
vt 0.9903 0.5048
vt 0.9903 0.5060
vt 0.7474 0.9251
vt 0.7474 0.9263
vt 0.2615 0.9263
vt 0.2615 0.9251
vt 0.0186 0.5048
vt 0.0186 0.5060
vt 0.7474 0.0845
vt 0.3454 0.3454
vt 0.6546 0.3454
vt 0.6546 0.6546
vt 0.3454 0.6546
vt 0.3125 1.0000
vt 0.3125 -0.0000
vt 0.7500 0.0000
vt 0.7500 1.0000
vt 0.3125 1.0000
vt 0.3125 -0.0000
vt 0.7500 0.0000
vt 0.7500 1.0000
vt 0.3125 1.0000
vt 0.3125 -0.0000
vt 0.7500 0.0000
vt 0.7500 1.0000
vt 0.3125 1.0000
vt 0.3125 -0.0000
vt 0.7500 0.0000
vt 0.7500 1.0000
vt 0.0796 0.0796
vt 0.9204 0.0796
vt 0.9204 0.9204
vt 0.0796 0.9204
vt 0.0796 0.0796
vt 0.9204 0.0796
vt 0.9204 0.9204
vt 0.0796 0.0796
vt 0.9204 0.0796
vt 0.9204 0.9204
vt 0.0796 0.9204
vt 0.9204 0.0796
vt 0.9204 0.9204
vt 0.0796 0.9204
vt 0.0796 0.0796
vt 0.9204 0.0796
vt 0.9204 0.9204
vt 0.0796 0.9204
vt 0.0796 0.0796
vt 0.0796 0.9204
vn -0.0000 -0.8192 -0.5736
vn 0.8660 -0.4096 -0.2868
vn 0.8660 0.4096 0.2868
vn -0.0000 0.8192 0.5736
vn -0.0000 0.5736 -0.8192
vn -0.8660 0.4096 0.2868
vn -0.8660 -0.4096 -0.2868
vn -0.0000 -0.5736 0.8192
vn 0.0000 0.6402 -0.7682
vn 1.0000 0.0000 0.0000
vn 0.0000 0.0000 1.0000
vn -1.0000 0.0000 0.0000
vn 0.0000 0.0000 -1.0000
vn 0.0000 0.8144 0.5803
vn 0.9998 0.0120 -0.0171
vn 0.0000 -0.7895 -0.6138
vn -0.9998 0.0120 -0.0171
usemtl Material
s off
f 18/1/1 19/2/1 17/3/1
f 19/2/2 22/4/2 21/5/2
f 21/5/3 24/6/3 23/7/3
f 24/6/4 25/8/4 23/7/4
f 18/1/5 26/9/5 22/4/5
f 25/8/6 28/10/6 27/11/6
f 27/11/7 18/1/7 17/3/7
f 19/2/8 25/8/8 27/11/8
f 18/1/1 20/12/1 19/2/1
f 19/2/2 20/12/2 22/4/2
f 21/5/3 22/4/3 24/6/3
f 24/6/4 26/9/4 25/8/4
f 22/4/5 20/12/5 18/1/5
f 18/1/5 28/10/5 26/9/5
f 26/9/5 24/6/5 22/4/5
f 25/8/6 26/9/6 28/10/6
f 27/11/7 28/10/7 18/1/7
f 27/11/8 17/3/8 19/2/8
f 19/2/8 21/5/8 23/7/8
f 23/7/8 25/8/8 19/2/8
usemtl Material_antenna.png
f 5/13/9 8/14/9 7/15/9 6/16/9
f 1/17/10 5/18/10 6/19/10 2/20/10
f 2/21/11 6/22/11 7/23/11 3/24/11
f 3/25/12 7/26/12 8/27/12 4/28/12
f 5/29/13 1/30/13 4/31/13 8/32/13
f 14/33/8 10/34/8 12/35/8 16/36/8
f 12/37/14 11/38/14 15/39/14 16/36/14
f 10/40/15 9/41/15 11/42/15 12/43/15
f 14/33/16 13/44/16 9/45/16 10/46/16
f 16/47/17 15/48/17 13/49/17 14/50/17
f 9/51/5 13/44/5 15/39/5 11/52/5
